# xmcd
#
# Track frame offsets: 
#        150
#        13005
#        30775
#        50278
#        68531
#        84638
#        96873
#        115098
#        140676
#        165862
#        174964
#        188527
#        220890
#        249713
#        261524
#        273807
#        288329
#        312430
#        329731
#
# Disc length: 4780 seconds
#
# Revision: 0
# Processed by: cddbd v1.5.2PL0 Copyright (c) Steve Scherf et al.
# Submitted via: ExactAudioCopy v1.3
#
DISCID=0412aa13
DTITLE=Richard Koechli - Ernst Süss - Dem Blues auf den Fersen
DYEAR=2016
DGENRE=Blues
TTITLE0=Auftauchen
TTITLE1=Der Weg ist noch weit
TTITLE2=Kokomo
TTITLE3=Auf der Suche
TTITLE4=Honest I do
TTITLE5=Vom Zauber der Jaguar
TTITLE6=Freight Train
TTITLE7=Six String Spell
TTITLE8=Stevie
TTITLE9=Ausverkauf
TTITLE10=Blind Willie
TTITLE11=Minnie
TTITLE12=John Lee
TTITLE13=Schicksalshaken
TTITLE14=Wayfaring Stranger
TTITLE15=Wegkreuzung
TTITLE16=Gotta serve somebody
TTITLE17=Hoher Besuch
TTITLE18=Das Geheimnis
EXTD=
EXTT0=
EXTT1=
EXTT2=
EXTT3=
EXTT4=
EXTT5=
EXTT6=
EXTT7=
EXTT8=
EXTT9=
EXTT10=
EXTT11=
EXTT12=
EXTT13=
EXTT14=
EXTT15=
EXTT16=
EXTT17=
EXTT18=
PLAYORDER=
